<?xml version="1.0" encoding="utf-8"?>
<!-- Generator: Adobe Illustrator 16.0.0, SVG Export Plug-In . SVG Version: 6.00 Build 0)  -->
<!DOCTYPE svg PUBLIC "-//W3C//DTD SVG 1.1//EN" "http://www.w3.org/Graphics/SVG/1.1/DTD/svg11.dtd">
<svg version="1.1" id="Layer_1" xmlns="http://www.w3.org/2000/svg" xmlns:xlink="http://www.w3.org/1999/xlink" x="0px" y="0px"
	 width="1885.656px" height="900px" viewBox="0 0 1885.656 900" enable-background="new 0 0 1885.656 900" xml:space="preserve">
<g>
	<path fill="#FFFFFF" d="M0,326.119c1.117-2.917,2.171-5.859,3.36-8.747c3.646-8.854,7.043-17.826,11.083-26.495
		c7.605-16.335,18.94-30.205,30.513-43.775c5.634-6.61,12.09-12.603,18.675-18.29c13.881-11.989,27.879-23.864,42.235-35.274
		c10.7-8.504,22.032-16.215,33.092-24.264c10.673-7.773,21.366-15.523,32.038-23.296c8.369-6.097,16.717-12.223,25.081-18.322
		c7.37-5.379,14.701-10.813,22.143-16.092c8.096-5.742,16.062-11.726,24.509-16.909c16.85-10.346,33.899-20.376,51.056-30.208
		c7.42-4.252,15.146-8.091,23.055-11.333c4.002-1.644,8.705-1.611,13.109-2.219c16.281-2.244,27.44,6.237,36.639,18.096
		c7.62,9.822,11.247,21.305,9.692,33.638c-1.2,9.526-5.192,18.183-11.953,25.488c-5.884,6.356-13.085,10.332-20.814,13.766
		c-47.608,21.158-93.926,44.84-136.849,74.443c-19.284,13.302-36.873,29.064-55.176,43.778
		c-14.875,11.957-29.731,23.939-44.447,36.091c-3.256,2.689-6.088,5.977-8.703,9.315c-0.97,1.234-0.759,3.397-1.085,5.139
		c1.541-0.173,3.117-0.198,4.619-0.543c4.958-1.144,9.84-3.102,14.846-3.462c11.248-0.815,22.584-1.533,33.829-1.046
		c14.047,0.61,28.065,2.237,42.045,3.868c10.647,1.241,21.35,2.579,31.79,4.934c13.733,3.099,27.398,6.728,40.782,11.083
		c12.659,4.115,25.132,8.98,37.285,14.418c10.454,4.671,20.674,10.073,30.376,16.146c9.363,5.86,18.347,12.502,26.742,19.684
		c11.429,9.784,21.493,20.932,27.694,34.953c2.92,6.601,5.887,13.217,8.145,20.051c1.208,3.658,1.335,7.803,1.281,11.72
		c-0.117,8.997,0.463,18.212-1.304,26.924c-1.86,9.169-5.655,18.053-9.47,26.677c-2.902,6.567-6.745,12.83-10.922,18.689
		c-5.648,7.916-11.934,15.387-18.115,22.906c-4.124,5.019-8.51,9.815-12.835,14.658c-4.241,4.746-8.432,9.544-12.854,14.117
		c-7.99,8.263-16.125,16.39-24.228,24.543c-2.488,2.507-4.929,5.09-7.63,7.354c-16.551,13.886-32.879,28.07-49.885,41.381
		c-9.645,7.549-20.413,13.672-30.732,20.35c-13.839,8.952-28.371,16.595-43.949,22.039c-8.232,2.871-16.532,6.087-25.069,7.418
		c-10.987,1.719-22.178,3.749-33.423,1.212c-7.825-1.767-15.943-2.677-23.425-5.372c-6.631-2.391-12.814-6.341-18.732-10.294
		c-5.731-3.829-11.242-8.162-16.171-12.973c-4.591-4.479-8.426-9.771-12.351-14.89c-7.663-9.988-13.181-21.197-17.377-32.981
		c-2.335-6.562-3.729-13.457-5.457-20.226c-1.749-6.854-2.618-13.789-2.417-20.908c0.24-8.585-0.913-17.3,0.193-25.742
		c2.042-15.564,6.507-30.545,14.99-44.054c7.469-11.886,14.365-24.177,22.479-35.604c4.524-6.369,10.488-12.066,16.809-16.695
		c4.567-3.346,10.664-4.904,16.306-6.408c6.655-1.773,13.519-3.284,20.361-3.664c5.626-0.309,11.584,1.166,14.493,6.967
		c2.082,4.148,4.091,8.315,1.871,13.594c-2.025,4.811-1.858,10.534-3.789,15.406c-5.873,14.817-12.465,29.347-18.443,44.122
		c-4.54,11.22-8.934,22.529-12.69,34.024c-2.316,7.091-4.231,14.559-4.669,21.954c-0.538,9.079,1.639,17.605,9.381,24.117
		c6.553,5.513,13.708,8.218,22.092,9.219c11.119,1.325,21.584-0.965,31.592-5.055c11.079-4.518,21.952-9.663,32.523-15.275
		c7.138-3.787,13.795-8.592,20.312-13.422c9.759-7.233,19.365-14.697,28.733-22.432c5.875-4.849,11.198-10.367,16.754-15.601
		c4.853-4.573,9.805-9.049,14.492-13.785c5.777-5.837,11.524-11.726,16.923-17.906c6.689-7.659,13.408-15.354,19.378-23.565
		c6.136-8.445,11.229-17.638,17.082-26.3c4.142-6.123,5.868-13.126,6.639-20.061c0.508-4.57-1.184-9.777-3.136-14.14
		c-4.244-9.487-12.619-15.062-21.394-19.833c-12.375-6.74-25.79-10.569-39.617-12.82c-11.737-1.91-23.53-3.505-35.34-4.892
		c-8.455-0.991-16.973-1.511-25.475-2.057c-7.143-0.457-14.302-0.896-21.454-0.899c-7.016,0-14.046,0.37-21.044,0.913
		c-10.097,0.786-20.169,1.877-30.253,2.835c-3.411,0.325-6.82,0.653-10.229,0.988c-18.513,1.812-37.108,3.056-55.649,1.803
		c-12.747-0.867-25.184-3.788-36.5-10.801C12.63,370.93,6.298,360.659,2.311,348.397c-0.765-2.352-1.54-4.703-2.311-7.052
		C0,336.27,0,331.195,0,326.119L0,326.119z"/>
	<path fill="#FFFFFF" d="M969.016,373.444c1.37-0.364,1.76-0.416,2.107-0.565c12.957-5.506,23.595-14.636,34.833-22.736
		c7.782-5.613,14.51-12.665,22.02-18.687c9.24-7.416,16.522-16.498,23.448-25.953c9.023-12.304,18.462-24.338,26.904-37.035
		c6.922-10.413,12.801-21.538,18.842-32.514c3.216-5.844,6.059-11.924,8.598-18.096c3.95-9.578,7.838-19.216,11.105-29.038
		c2.235-6.73,3.57-13.785,4.957-20.766c1.413-7.116,3.145-14.295,3.4-21.492c0.438-12.382,1.046-24.865-2.198-37.088
		c-1.644-6.2-2.829-12.531-4.531-18.715c-2.082-7.572-4.396-14.98-8.517-21.902c-3.313-5.564-7.52-9.677-13.266-11.813
		c-7.5-2.79-15.338-0.734-22.493,1.357c-8.144,2.384-16.082,5.558-23.387,10.654c-7.218,5.041-13.528,10.751-18.836,17.484
		c-5.362,6.802-10.085,14.155-14.567,21.584c-3.645,6.035-6.902,12.372-9.638,18.868c-3.498,8.321-6.457,16.887-9.357,25.446
		c-2.353,6.935-4.629,13.931-6.302,21.051c-2.354,10.021-4.122,20.178-6.133,30.275c-1.585,7.938-3.264,15.857-4.703,23.819
		c-1.371,7.584-2.572,15.197-3.689,22.824c-0.939,6.389-1.667,12.813-2.449,19.229c-0.822,6.711-1.634,13.425-2.395,20.143
		c-1.228,10.903-2.786,21.788-3.508,32.725c-0.834,12.654-1.029,25.358-1.254,38.042
		C967.934,364.674,968.629,368.815,969.016,373.444L969.016,373.444z M1101.76,0c3.94,0.581,7.909,1.036,11.823,1.764
		c11.791,2.192,22.772,6.317,33.062,12.681c12.112,7.49,20.639,18.057,27.232,30.233c5.028,9.273,8.903,19.151,10.524,29.701
		c1.367,8.864,2.991,17.729,3.657,26.657c0.835,11.235,0.975,22.532,1.095,33.81c0.055,5.259-0.352,10.566-1.065,15.78
		c-1.371,10.011-3.024,19.982-4.72,29.94c-1.501,8.81-2.962,17.635-4.921,26.346c-1.595,7.14-3.888,14.12-5.883,21.168
		c-2.81,9.93-5.311,19.97-8.556,29.763c-2.539,7.676-5.573,15.264-9.186,22.49c-3.881,7.776-8.182,15.451-13.22,22.52
		c-7.295,10.248-15.087,20.193-23.296,29.73c-6.193,7.207-13.125,13.843-20.16,20.255c-11.304,10.31-22.607,20.675-34.583,30.176
		c-10.04,7.964-20.814,15.084-31.673,21.928c-10.442,6.587-21.516,12.154-32.075,18.563c-3.3,2-6.197,4.988-8.617,8.049
		c-2.765,3.498-1.976,7.613,2.329,10.734c6.453,4.685,13.063,9.3,20.112,12.983c26.66,13.928,54.936,24.166,82.651,35.7
		c16.761,6.97,33.414,14.314,49.651,22.415c13.122,6.545,25.819,14.062,38.211,21.918c9.556,6.059,18.904,12.694,27.304,20.227
		c7.006,6.282,13.249,13.743,18.473,21.584c6.044,9.075,0.971,14.821-8.553,15.539c-10.271,0.779-20.314-1.965-29.877-5.369
		c-13.566-4.833-26.868-10.456-40.134-16.092c-10.146-4.31-20.066-9.162-30.084-13.771c-12.103-5.567-24.331-10.885-36.284-16.754
		c-17.099-8.391-33.875-17.446-51.028-25.726c-13.022-6.281-26.232-12.271-39.719-17.468c-7.327-2.826-15.396-3.745-23.14-5.483
		c-2.488-0.559-4.187,0.721-5.021,2.868c-1.153,2.956-2.748,6.022-2.822,9.075c-0.315,12.813-1.186,25.741,0.11,38.426
		c2.06,20.19,2.695,40.384,1.919,60.562c-0.399,10.348-1.77,21.558-11.527,28.08c-5.327,3.566-11.864,5.401-17.983,7.665
		c-3.021,1.117-6.313,1.878-9.516,2.018c-3.643,0.155-7.441-0.091-10.961-0.984c-7.76-1.975-14.102-6.185-19.147-12.632
		c-5.475-7-8.512-15.11-11.086-23.312c-2.042-6.509-2.834-13.453-3.742-20.262c-1.074-8.025-1.727-16.107-2.458-24.172
		c-0.533-5.876-1.068-11.759-1.304-17.65c-0.479-11.791-0.672-23.592-1.138-35.386c-0.286-7.227-0.625-14.471-1.368-21.665
		c-0.917-8.938-1.858-17.917-3.635-26.706c-0.774-3.853-3.31-7.224-7.464-9.377c-6.954-3.605-13.832-7.578-20.072-12.285
		c-5.236-3.949-8.962-9.822-9.373-16.474c-0.284-4.604,0.903-9.547,4.146-13.493c2.993-3.642,6.922-5.33,11.492-5.626
		c5.944-0.387,11.895-0.627,17.837-0.958c3.643-0.201,8.508-4.996,9.423-10.004c1.122-6.146,2.09-12.366,2.439-18.593
		c0.714-12.684,0.667-25.413,1.517-38.084c0.617-9.229,2.141-18.395,3.313-27.58c0.774-6.074,1.422-12.178,2.527-18.189
		c1.158-6.321,2.837-12.548,4.203-18.83c1.049-4.813,1.874-9.676,2.972-14.477c1.283-5.626,2.835-11.193,4.133-16.822
		c1.885-8.182,3.636-16.39,5.465-24.585c1.487-6.662,3.104-13.301,4.469-19.992c0.755-3.687,1.091-7.458,1.667-11.18
		c1.052-6.812,2.132-13.623,3.224-20.428c0.866-5.392,1.663-10.797,2.665-16.163c1.254-6.724,2.458-13.47,4.124-20.093
		c1.051-4.187,2.501-8.383,4.53-12.171c1.415-2.641,3.995-4.719,6.267-6.817c2.228-2.062,4.853-3.693,7.071-5.763
		c3.539-3.3,6.918-6.771,10.298-10.234c5.924-6.074,11.881-12.112,17.66-18.316c6.912-7.422,13.931-14.77,20.395-22.564
		c8.24-9.933,18.164-17.934,28.281-25.684c8.803-6.743,18.531-12.138,29.227-15.275c8.306-2.437,16.816-4.213,25.281-6.074
		c3.868-0.851,7.844-1.205,11.773-1.783C1087.871,0,1094.815,0,1101.76,0L1101.76,0z"/>
	<path fill="#FFFFFF" d="M656.423,448.674c-6.236,8.062-12.435,16.144-18.712,24.17c-8.341,10.66-16.583,21.405-25.162,31.874
		c-10.267,12.534-20.505,25.124-31.385,37.119c-9.855,10.865-21.49,19.82-34.753,26.238c-8.502,4.119-17.176,8.381-26.25,10.699
		c-12.279,3.135-24.869,4.382-37.761,1.624c-8.409-1.799-16.026-5.103-22.399-10.15c-6.418-5.086-12.073-11.566-16.699-18.361
		c-4.992-7.338-8.952-15.529-12.317-23.77c-2.348-5.749-2.875-12.229-4.334-18.349c-2.6-10.895-2.896-22-2.245-33.047
		c0.575-9.754,2.016-19.476,3.485-29.148c1.314-8.669,2.754-17.371,4.938-25.853c2.222-8.623,5.366-17.02,8.213-25.478
		c2.758-8.195,5.392-16.445,8.554-24.484c3.396-8.627,7.128-17.141,11.11-25.518c7.782-16.357,16.294-32.352,22.61-49.411
		c3.615-9.76,8.708-18.956,12.711-28.583c5.486-13.19,14.074-24.4,22.155-35.944c5.567-7.948,11.092-15.968,17.236-23.464
		c3.446-4.197,7.807-7.841,12.306-10.924c5.699-3.904,12.082-2.325,18.079-0.276c8.703,2.985,15.848,8.416,22.094,15.068
		c6.243,6.643,11.945,13.717,15.713,22.081c4.274,9.497,2.657,18.761-2.139,27.551c-7.113,13.041-17.199,23.789-27.234,34.566
		c-8.508,9.141-17.306,18.076-25.069,27.823c-5.025,6.312-8.694,13.772-12.483,20.977c-5.551,10.554-10.829,21.259-15.917,32.05
		c-5.01,10.618-9.955,21.291-14.322,32.186c-3.593,8.958-6.477,18.209-9.324,27.443c-1.35,4.378-1.626,9.085-2.844,13.519
		c-2.46,8.933-2.432,18.008-2.438,27.145c0,4.392-1.187,8.78-1.225,13.171c-0.026,3.476,0.6,7.036,1.481,10.414
		c0.545,2.072,2.005,3.79,4.755,1.916c7.02-4.774,14.383-9.078,21.149-14.188c12.026-9.078,23.924-18.358,35.464-28.041
		c7.059-5.928,13.425-12.697,19.971-19.216c7.932-7.906,16.025-15.679,23.508-24.001c9.626-10.699,19.005-21.655,27.955-32.926
		c9.267-11.668,18.173-23.644,26.732-35.844c9.908-14.132,19.284-28.642,28.85-43.015c4.325-6.496,8.829-12.892,12.759-19.619
		c6.86-11.748,13.352-23.708,19.975-35.593c3.089-5.541,6.373-10.995,9.137-16.698c6.034-12.428,12.02-24.891,17.602-37.526
		c7.97-18.036,15.317-36.35,23.411-54.324c4.242-9.41,9.095-18.612,14.483-27.408c3.418-5.587,8.033-10.557,12.661-15.253
		c4.198-4.259,9.923-5.863,15.853-5.961c6.446-0.104,12.939-0.809,19.02,2.713c5.577,3.231,9.931,7.143,12.95,13.073
		c3.516,6.905,4.801,13.967,4.637,21.538c-0.136,6.338,0.44,12.727-0.162,19.009c-0.59,6.139-1.899,12.277-3.568,18.229
		c-1.983,7.048-4.338,14.041-7.188,20.781c-2.415,5.71-5.808,11.002-8.699,16.514c-6.278,11.976-12.788,23.845-18.689,36.009
		c-4.942,10.186-9.266,20.684-13.649,31.133c-5.189,12.369-10.545,24.689-15.101,37.292c-5.242,14.503-9.975,29.214-14.389,43.999
		c-3,10.057-4.97,20.415-7.584,30.595c-2.168,8.445-4.723,16.786-6.894,25.231c-2.228,8.663-4.081,17.426-6.316,26.089
		c-2.037,7.88-4.385,15.679-6.56,23.526c-2.631,9.481-5.176,18.985-7.849,28.453c-2.452,8.692-5.043,17.342-7.534,26.024
		c-2.717,9.475-5.332,18.982-8.099,28.444c-1.994,6.83-4.231,13.59-6.246,20.414c-3.173,10.726-6.217,21.483-9.382,32.208
		c-2.088,7.068-4.344,14.088-6.439,21.155c-2.295,7.747-4.497,15.52-6.731,23.286c-2.173,7.552-4.371,15.091-6.49,22.659
		c-2.292,8.198-4.484,16.426-6.754,24.634c-2.173,7.844-4.455,15.665-6.576,23.522c-1.886,6.98-3.586,14.006-5.429,21
		c-1.852,7.035-3.881,14.021-5.641,21.08c-1.47,5.908-2.621,11.892-3.98,17.825c-1.319,5.759-2.731,11.495-4.08,17.248
		c-1.057,4.537-2.074,9.082-3.115,13.619c-1.062,4.626-2.179,9.231-3.176,13.866c-1.009,4.688-1.933,9.397-2.831,14.106
		c-1.142,5.986-2.259,11.979-3.319,17.979c-0.949,5.369-1.431,10.849-2.777,16.114c-2.231,8.731-4.687,17.433-7.62,25.952
		c-3.05,8.861-11.052,10.85-19.112,12.109c-3.009,0.471-6.189,0.429-9.227,0.062c-10.587-1.273-15.723-8.613-18.017-17.942
		c-1.603-6.516-1.713-13.392-2.595-20.09c-0.214-1.646-1.293-3.265-1.2-4.846c0.482-8.062,1.211-16.111,1.873-24.166
		c0.087-1.046,0.279-2.086,0.432-3.122c1.225-8.432,2.462-16.861,3.674-25.296c0.408-2.853,0.638-5.74,1.143-8.575
		c1.521-8.521,3.253-17.001,4.663-25.54c0.745-4.502,0.875-9.108,1.497-13.64c0.971-7.07,2.136-14.112,3.2-21.168
		c0.895-5.924,1.634-11.871,2.688-17.764c0.99-5.548,2.342-11.03,3.465-16.556c0.927-4.563,1.736-9.156,2.644-13.727
		c0.929-4.69,1.829-9.394,2.901-14.062c1.72-7.52,3.542-15.02,5.371-22.522c2.139-8.76,4.284-17.521,6.518-26.261
		c1.765-6.932,3.628-13.837,5.517-20.736c2.155-7.873,4.421-15.718,6.583-23.591c2.647-9.638,5.151-19.317,7.886-28.935
		c1.873-6.568,4.161-13.021,6.024-19.593c2.005-7.084,3.656-14.266,5.608-21.363c2.876-10.455,6.206-20.794,8.747-31.328
		c2.425-10.046,4.081-20.278,6.1-30.425c0.08-0.399,0.442-0.741,0.672-1.111C656.909,448.94,656.667,448.808,656.423,448.674
		L656.423,448.674z"/>
	<path fill="#FFFFFF" d="M1667.916,396.32c4.008-2.487,7.266-4.371,10.377-6.46c8.729-5.856,17.755-11.346,26.008-17.812
		c11.866-9.307,23.241-19.249,34.651-29.113c5.863-5.07,11.605-10.332,16.962-15.926c6.379-6.665,12.561-13.564,18.336-20.756
		c8.348-10.384,17.111-20.593,24.12-31.854c8.186-13.151,15.159-27.128,21.701-41.192c3.544-7.613,5.239-16.117,7.474-24.296
		c1.192-4.35,2.001-8.842,2.553-13.32c0.942-7.64,1.852-15.306,2.174-22.987c0.191-4.519-0.773-9.088-1.219-13.636
		c-0.025-0.263,0.02-0.546-0.045-0.796c-2.361-8.958-4.59-17.952-7.14-26.855c-3.459-12.119-9.14-23.091-17.631-32.523
		c-9.114-10.121-19.807-15.279-33.895-12.551c-12.687,2.455-23.694,8.263-33.881,15.656c-11.897,8.643-22.708,18.641-32.089,30.003
		c-6.249,7.568-12.872,15.055-17.712,23.507c-7.168,12.512-12.946,25.829-19.212,38.854c-1.219,2.537-1.946,5.308-2.901,7.972
		c0.348,0.224,0.692,0.444,1.04,0.665c0.422-0.659,0.767-1.384,1.279-1.962c4.479-5.051,9.621-8.792,16.758-9.059
		c8.152-0.306,14.509,2.764,20.083,8.744c6.438,6.912,10.099,14.873,10.079,24.104c-0.017,6.724-1.251,13.477-2.284,20.164
		c-1.039,6.772-2.176,13.561-3.855,20.197c-1.965,7.766-4.482,15.399-6.902,23.045c-4.157,13.113-8.276,26.235-12.687,39.261
		c-2.729,8.052-6.106,15.877-8.939,23.893c-3.684,10.424-7.266,20.893-10.572,31.445
		C1669.271,386.811,1668.881,391.169,1667.916,396.32L1667.916,396.32z M1885.407,173.058c0,5.473-0.399,10.984,0.088,16.416
		c0.825,9.104-1.949,17.585-3.94,26.17c-1.948,8.403-4.199,16.789-7.094,24.906c-5.45,15.267-11.03,30.514-17.377,45.422
		c-4.808,11.294-10.774,22.104-16.426,33.024c-6.88,13.291-15.26,25.618-24.797,37.142c-6.07,7.335-12.313,14.522-18.433,21.814
		c-7.017,8.364-15.036,15.653-23.708,22.234c-9.508,7.21-18.554,15.217-28.763,21.255c-13.499,7.987-27.921,14.416-41.969,21.468
		c-10.092,5.063-20.655,9.351-30.224,15.26c-13.013,8.039-22.607,19.442-26.45,34.65c-2.472,9.78-4.368,19.729-6.031,29.685
		c-1.572,9.394-2.511,18.889-3.696,28.344c-0.825,6.604-1.469,13.236-2.424,19.826c-1.026,7.059-2.41,14.062-3.469,21.116
		c-0.607,4.012-0.728,8.098-1.328,12.109c-1.056,7.028-2.346,14.021-3.479,21.038c-0.5,3.089-0.944,6.197-1.267,9.309
		c-0.857,8.312-1.656,16.631-2.442,24.949c-0.825,8.741-1.695,17.481-2.374,26.232c-0.543,6.97-1.219,13.963-1.15,20.94
		c0.201,21.513,1.046,43.024,0.945,64.534c-0.035,6.918-1.761,13.96-3.596,20.706c-1.744,6.393-7.467,8.93-13.447,9.67
		c-7.435,0.909-14.711-0.588-21.344-4.196c-4.677-2.544-9.303-5.249-13.661-8.289c-5.489-3.833-8.049-9.491-9.296-16.014
		c-0.981-5.151-2.892-10.124-4.012-15.26c-1.261-5.771-2.131-11.632-3.099-17.465c-0.529-3.196-0.958-6.409-1.352-9.628
		c-0.835-6.837-1.718-13.675-2.388-20.534c-0.513-5.246-0.75-10.524-1.068-15.789c-0.471-7.747-1.156-15.487-1.309-23.244
		c-0.49-25.673-0.913-51.347-1.088-77.023c-0.065-9.11,0.594-18.231,1.039-27.346c0.321-6.503,0.789-13.005,1.267-19.502
		c0.315-4.274,0.637-8.559,1.188-12.807c1.121-8.614,2.395-17.206,3.612-25.807c0.818-5.778,1.585-11.563,2.488-17.335
		c1.091-6.984,2.897-13.919,3.284-20.935c0.425-7.623-0.322-15.325-0.758-22.978c-0.539-9.53-7.479-16.264-11.033-24.494
		c-3.537-8.205-7.73-16.042-7.309-25.439c0.354-8,4.269-13.886,11.918-16.032c2.751-0.771,5.7-1.141,8.552-1.104
		c1.793,0.025,3.83,0.789,5.301,1.854c2.086,1.511,3.58,1.234,4.405-0.903c2.114-5.485,4.332-10.981,5.826-16.653
		c1.937-7.317,3.353-14.785,4.71-22.236c1.092-5.983,1.78-12.041,2.625-18.072c1.234-8.857,2.472-17.712,3.66-26.573
		c0.436-3.255,0.705-6.528,1.102-9.786c0.799-6.594,1.39-13.227,2.53-19.759c1.059-6.062,2.66-12.041,4.142-18.024
		c1.734-7.016,3.491-14.038,5.443-20.999c1.981-7.042,3.979-14.094,6.386-20.995c3.638-10.431,7.994-20.613,11.395-31.111
		c5.139-15.848,12.301-30.772,20.093-45.38c6.094-11.427,12.616-22.697,19.892-33.396c7.76-11.404,16.65-21.951,26.732-31.575
		c12.151-11.609,25.783-20.502,41.368-26.554c8.595-3.333,17.423-5.477,26.716-5.622c4.2-0.062,8.478-1.364,12.573-0.881
		c11.252,1.335,22.5,2.41,33.463,6.077c11.765,3.937,22.851,9.157,33.209,15.663c6.483,4.069,11.66,10.183,17.562,15.221
		c9.312,7.951,16.114,17.913,21.7,28.541c4.6,8.744,8.049,18.135,11.509,27.421C1886.164,141.427,1885.924,157.252,1885.407,173.058
		L1885.407,173.058z"/>
	<path fill="#FFFFFF" d="M1388.696,460.117c-6.161,3.069-9.656,7.656-13.012,12.265c-6.269,8.602-11.647,17.956-18.68,25.855
		c-5.88,6.604-13.246,12.073-20.597,17.111c-6.084,4.174-12.817,7.809-19.781,10.17c-8.039,2.731-16.562,4.453-25.014,5.418
		c-9.595,1.095-19.362,0.471-28.743-2.157c-10.4-2.916-19.813-7.789-28.242-14.785c-7.529-6.249-13.798-13.477-18.3-21.99
		c-2.979-5.632-5.097-11.861-6.652-18.06c-1.79-7.143-3.294-14.525-3.524-21.847c-0.224-7.236,1.28-14.532,2.04-21.798
		c0.426-4.044,0.747-8.107,1.367-12.122c1.046-6.779,2.322-13.528,3.453-20.298c0.88-5.266,1.553-10.569,2.572-15.809
		c1.114-5.714,2.446-11.392,3.833-17.053c1.409-5.766,2.981-11.492,4.521-17.222c2.514-9.352,4.892-18.741,7.633-28.021
		c3.316-11.229,6.899-22.373,10.462-33.524c1.608-5.015,3.32-10.004,5.224-14.912c4.508-11.621,9.059-23.23,13.788-34.761
		c5.281-12.883,10.407-25.846,16.289-38.455c6.221-13.33,13.07-26.375,19.986-39.364c4.58-8.601,9.692-16.923,14.685-25.3
		c2.758-4.625,6.564-8.263,11.865-9.692c5.116-1.384,10.336-2.937,15.568-3.183c4.742-0.228,9.631,0.916,14.341,1.968
		c10.455,2.339,20.47,5.86,28.362,13.538c5.506,5.356,8.676,14.179,4.665,21.925c-5.49,10.599-10.973,21.204-16.374,31.849
		c-5.548,10.933-10.982,21.922-16.484,32.874c-5.106,10.163-10.446,20.21-15.296,30.49c-4.395,9.325-8.354,18.858-12.365,28.362
		c-4.811,11.408-9.68,22.796-14.126,34.35c-3.193,8.302-5.802,16.832-8.546,25.3c-2.891,8.919-5.788,17.842-8.384,26.846
		c-1.533,5.337-2.479,10.836-3.709,16.257c-1.4,6.161-2.943,12.287-4.2,18.479c-1.159,5.724-2.033,11.508-3.008,17.271
		c-1.228,7.27-3.053,14.506-3.459,21.824c-0.374,6.883,0.532,13.886,1.406,20.762c0.188,1.459,1.906,3.187,4.924,1.793
		c10.625-4.895,18.992-12.573,27.259-20.515c3.689-3.544,7.906-6.588,11.358-10.339c8.299-9.014,16.864-17.875,24.264-27.603
		c10.001-13.148,19.323-26.853,28.32-40.716c4.911-7.562,8.598-15.916,12.746-23.958c4.85-9.397,9.673-18.813,14.369-28.285
		c2.274-4.586,4.229-9.328,6.331-13.999c3.086-6.854,6.269-13.662,9.231-20.564c4.089-9.52,8.02-19.111,12.021-28.671
		c6.528-15.604,12.862-31.296,19.65-46.789c6.204-14.179,12.905-28.143,19.379-42.2c4.226-9.173,8.198-18.472,12.723-27.488
		c3.85-7.663,10.836-11.343,19.093-11.853c15.11-0.933,28.72,3.562,39.776,13.935c6.182,5.798,10.349,12.995,10.066,22.243
		c-0.338,11.033-2.988,21.479-5.87,32.049c-4.681,17.192-12.199,33.153-19.943,49.015c-4.946,10.131-11.096,19.667-16.504,29.58
		c-3.768,6.909-7.178,14.007-10.777,21.013c-3.189,6.214-6.71,12.271-9.543,18.641c-4.284,9.624-8.412,19.34-12.011,29.23
		c-3.268,8.975-6.029,18.16-8.469,27.395c-1.679,6.35-2.384,12.95-3.621,19.421c-1.137,5.95-2.449,11.868-3.596,17.812
		c-0.514,2.653-0.913,5.33-1.195,8.013c-0.526,5.061-1.023,10.121-1.361,15.198c-0.455,6.987-0.698,13.99-1.127,20.979
		c-0.36,5.896-1.396,11.798-1.173,17.667c0.328,8.634,0.822,17.374,2.505,25.816c1.965,9.835,4.466,19.635,9.433,28.619
		c4.115,7.441,7.064,15.214,7.393,24.068c0.25,6.763-1.465,13.369-6.366,15.994c-4.879,2.614-10.284,3.134-15.458,2.114
		c-6.239-1.231-12.382-3.251-18.353-5.486c-7.178-2.686-12.544-7.867-17.27-13.83c-8.449-10.66-14.497-22.646-19.066-35.301
		c-3.265-9.056-5.396-18.521-7.972-27.82C1391.831,472.09,1390.34,466.299,1388.696,460.117L1388.696,460.117z"/>
</g>
</svg>
